<?xml version="1.0" encoding="utf-8"?>
<!-- Generator: Adobe Illustrator 23.0.3, SVG Export Plug-In . SVG Version: 6.00 Build 0)  -->
<svg version="1.1" xmlns="http://www.w3.org/2000/svg" xmlns:xlink="http://www.w3.org/1999/xlink" x="0px" y="0px"
	 viewBox="0 0 500 500" style="enable-background:new 0 0 500 500;" xml:space="preserve">
<style type="text/css">
	.st0{fill:#E6E6E6;}
	.st1{fill:#E0E0E0;}
	.st2{fill:#FAFAFA;}
	.st3{fill:#F5F5F5;}
	.st4{fill:#F0F0F0;}
	.st5{fill:#FFFFFF;}
	.st6{display:none;}
	.st7{display:inline;}
	.st8{fill:#E58A7B;}
	.st9{fill:#407BFF;}
	.st10{fill:#EA071D;}
	.st11{opacity:0.2;}
	.st12{fill:#E8ECF1;}
	.st13{fill:#263238;}
	.st14{fill:#CF6F64;}
	.st15{fill:#151516;}
	.st16{fill:#DF5753;}
	.st17{fill:#FF4343;}
	.st18{fill:#DD2222;}
	.st19{fill:#EA4960;}
	.st20{opacity:0.47;fill:#FF4343;}
	.st21{fill:#020202;}
	.st22{opacity:0.1;}
	.st23{opacity:0.6;}
	.st24{opacity:0.4;}
	.st25{opacity:0.4;fill:#070707;}
	.st26{opacity:0.3;fill:#FF1033;}
</style>
<g id="Background_complete">
	<g>
		<g>
			<rect y="382.4" class="st0" width="500" height="0.25"/>
			<rect x="91.7" y="397.53" class="st0" width="33.12" height="0.25"/>
			<rect x="62.03" y="397.53" class="st0" width="19.19" height="0.25"/>
			<rect x="191.36" y="401.21" class="st0" width="19.19" height="0.25"/>
			<rect x="267.42" y="406.79" class="st0" width="43.19" height="0.25"/>
			<rect x="252.19" y="406.79" class="st0" width="6.33" height="0.25"/>
			<rect x="359.67" y="401.21" class="st0" width="93.68" height="0.25"/>
			<g>
				<path class="st0" d="M237.01,337.8H43.92c-3.15,0-5.71-2.56-5.71-5.71V60.66c0-3.15,2.56-5.71,5.71-5.71h193.1
					c3.15,0,5.71,2.56,5.71,5.71v271.43C242.72,335.24,240.16,337.8,237.01,337.8z M43.92,55.2c-3.01,0-5.46,2.45-5.46,5.46v271.43
					c0,3.01,2.45,5.46,5.46,5.46h193.1c3.01,0,5.46-2.45,5.46-5.46V60.66c0-3.01-2.45-5.46-5.46-5.46H43.92z"/>
				<path class="st0" d="M453.31,337.8h-193.1c-3.15,0-5.71-2.56-5.71-5.71V60.66c0-3.15,2.56-5.71,5.71-5.71h193.1
					c3.15,0,5.71,2.56,5.71,5.71v271.43C459.02,335.24,456.46,337.8,453.31,337.8z M260.21,55.2c-3.01,0-5.46,2.45-5.46,5.46v271.43
					c0,3.01,2.45,5.46,5.46,5.46h193.1c3.01,0,5.46-2.45,5.46-5.46V60.66c0-3.01-2.45-5.46-5.46-5.46H260.21z"/>
			</g>
		</g>
		<g>
			<rect x="245.41" y="296.98" class="st1" width="21.99" height="87.23"/>
			<polygon class="st2" points="263.22,384.21 267.4,384.21 267.4,372.33 258.84,372.33 			"/>
			<rect x="149.05" y="296.98" class="st1" width="21.99" height="87.23"/>
			<rect x="167.4" y="296.98" class="st2" width="100" height="79.94"/>
			<path class="st1" d="M263.77,300.91v21.15h-92.75v-21.15H263.77 M264.16,300.52h-93.52v21.92h93.52V300.52L264.16,300.52z"/>
			<polygon class="st2" points="171.58,384.21 167.4,384.21 167.4,372.33 175.95,372.33 			"/>
			<path class="st0" d="M215.19,311.48c0,1.22,0.99,2.21,2.21,2.21c1.22,0,2.21-0.99,2.21-2.21c0-1.22-0.99-2.21-2.21-2.21
				C216.18,309.27,215.19,310.26,215.19,311.48z"/>
			<path class="st1" d="M263.77,326.37v21.15h-92.75v-21.15H263.77 M264.16,325.99h-93.52v21.92h93.52V325.99L264.16,325.99z"/>
			<path class="st0" d="M215.19,336.95c0,1.22,0.99,2.21,2.21,2.21c1.22,0,2.21-0.99,2.21-2.21s-0.99-2.21-2.21-2.21
				C216.18,334.74,215.19,335.73,215.19,336.95z"/>
			<path class="st1" d="M263.77,351.84v21.15h-92.75v-21.15H263.77 M264.16,351.45h-93.52v21.92h93.52V351.45L264.16,351.45z"/>
			<path class="st0" d="M215.19,362.42c0,1.22,0.99,2.21,2.21,2.21c1.22,0,2.21-0.99,2.21-2.21s-0.99-2.21-2.21-2.21
				C216.18,360.2,215.19,361.2,215.19,362.42z"/>
		</g>
		<g>
			<rect x="135.62" y="246.32" class="st1" width="21.99" height="137.9"/>
			<polygon class="st2" points="153.43,384.21 157.61,384.21 157.61,372.33 149.05,372.33 			"/>
			<rect x="53.44" y="246.32" class="st1" width="21.99" height="137.9"/>
			<rect x="71.78" y="246.32" class="st2" width="85.83" height="130.61"/>
			<path class="st1" d="M153.91,250.01v29.57H75.48v-29.57H153.91 M154.37,249.56H75.02v30.48h79.35V249.56L154.37,249.56z"/>
			<path class="st1" d="M153.91,283.18v78.44h-37.36v-78.44H153.91 M154.37,282.72H116.1v79.35h38.27V282.72L154.37,282.72z"/>
			<path class="st1" d="M112.84,283.18v78.44H75.48v-78.44H112.84 M113.29,282.72H75.02v79.35h38.27V282.72L113.29,282.72z"/>
			<polygon class="st2" points="75.96,384.21 71.78,384.21 71.78,372.33 80.34,372.33 			"/>
			<path class="st0" d="M112.48,264.8c0,1.22,0.99,2.21,2.21,2.21c1.22,0,2.21-0.99,2.21-2.21c0-1.22-0.99-2.21-2.21-2.21
				C113.47,262.59,112.48,263.58,112.48,264.8z"/>
			<path class="st0" d="M120.4,320.53c0,1.22,0.99,2.21,2.21,2.21c1.22,0,2.21-0.99,2.21-2.21c0-1.22-0.99-2.21-2.21-2.21
				C121.39,318.31,120.4,319.3,120.4,320.53z"/>
			<path class="st0" d="M104.57,320.53c0,1.22,0.99,2.21,2.21,2.21c1.22,0,2.21-0.99,2.21-2.21c0-1.22-0.99-2.21-2.21-2.21
				C105.56,318.31,104.57,319.3,104.57,320.53z"/>
		</g>
		<path class="st1" d="M102.07,207.87H92.8c0,0,1.61,8.57,1.61,13.62c0,5.05-7.06,24.83,3.03,24.83c10.08,0,3.03-19.78,3.03-24.83
			C100.46,216.44,102.07,207.87,102.07,207.87z"/>
		<path class="st3" d="M66.8,228.15v6.03c0,6.68,5.46,12.14,12.14,12.14h6.03c6.68,0,12.14-5.46,12.14-12.14v-6.03H66.8z"/>
		<path class="st1" d="M195.67,284.26c0,6.99,7.83,12.71,17.4,12.71h8.64c9.57,0,17.4-5.72,17.4-12.71H195.67z"/>
		<g>
			<path class="st1" d="M424.61,274.03c-5.24,4.28-12.47,12.11-19.1,23.13c-4.41,7.34-7.07,15.03-8.24,25.19
				c0.03-11.5,0.06-23.85,0.1-35.51c1.33-3,4.37-9.92,6.55-15.38c7.28-18.23,9.99-22.71,16.53-38.44
				c8.73-20.97,17.67-45.86,15.11-43.87c-5.22,4.05-25.22,41.5-27.38,46.87c-7.44,18.44-9.51,31.88-10.79,44.85
				c0.04-10.95,0.08-21.01,0.12-28.77c0.13-25.31,0.56-33.48,0.77-36c0.81-1.28,1.76-2.77,2.32-3.58
				c4.7-6.79,6.51-12.58,10.94-22.71c6.27-14.36,11.68-39.85,10.1-38.56c-6.58,5.35-11.76,16.86-18.58,31.53
				c-6.82,14.66-4.87,23.1-6.22,35.62c-0.28,2.46-0.5,11.73-0.66,24.59c-1.77-13.7-5.08-22.72-11.13-30.92
				c-7.44-10.09-14.64-16.9-19.92-20.46c-5.28-3.56,9.12,21.22,16.01,32.04c6.13,9.63,11.78,18.13,14.97,26.5
				c-0.17,17.42-0.25,39.48-0.25,60.02c-1.58-9.35-4.16-19.41-7.6-27.2c-4.14-9.36-10.5-23.72-15.56-28.6
				c-1.22-1.17,5.3,26.76,9.48,34.19c4.18,7.43,7.25,14.43,9.88,18.64c0.61,0.98,2.65,4.77,3.81,6.95
				c0.01,25.07,0.14,47.19,0.36,54.72h1.08c-0.07-1.94-0.09-14.7-0.06-31.58c2.61-9.16,8.57-19.62,13.5-29.16
				C416.11,297.7,429.85,269.75,424.61,274.03z"/>
			<g>
				<polygon class="st4" points="412.44,384.21 381.1,384.21 378.73,353.49 414.81,353.49 				"/>
				<polygon class="st3" points="417.14,357.07 376.4,357.07 375.23,346.7 418.31,346.7 				"/>
			</g>
		</g>
		<g>
			<rect x="68.21" y="75.5" class="st1" width="56.05" height="61.55"/>
			<rect x="72.43" y="75.5" class="st3" width="57.9" height="61.55"/>
			
				<rect x="75.46" y="82.17" transform="matrix(-1.836970e-16 1 -1 -1.836970e-16 207.6537 4.8903)" class="st5" width="51.85" height="48.2"/>
			
				<rect x="88.02" y="93.86" transform="matrix(-1.836970e-16 1 -1 -1.836970e-16 207.6537 4.8903)" class="st3" width="26.71" height="24.83"/>
		</g>
		<g>
			<g>
				<rect x="357.98" y="82.67" class="st1" width="52.07" height="57.18"/>
				<rect x="361.91" y="82.67" class="st3" width="53.78" height="57.18"/>
				
					<rect x="364.72" y="88.87" transform="matrix(-1.836970e-16 1 -1 -1.836970e-16 500.0589 -277.5375)" class="st5" width="48.17" height="44.77"/>
			</g>
			<circle class="st3" cx="388.8" cy="111.26" r="13.97"/>
		</g>
		<g>
			<g>
				<rect x="140.91" y="112.2" class="st1" width="41.58" height="45.66"/>
				<rect x="144.04" y="112.2" class="st3" width="42.95" height="45.66"/>
				
					<rect x="146.29" y="117.15" transform="matrix(-1.836970e-16 1 -1 -1.836970e-16 300.5446 -30.4925)" class="st5" width="38.46" height="35.75"/>
				<polygon class="st3" points="165.52,125.3 155.74,142.24 175.3,142.24 				"/>
			</g>
		</g>
	</g>
</g>
<g id="Background_simple" class="st6">
	<g class="st7">
		<path class="st3" d="M134.46,237.74c58.54,60.36,135.47,102.2,206.78,34.62c36.76-34.84,85.34-128.93,37.4-171.99
			c-66.07-59.34-103.98,37.76-153.37,50.91c-33.86,9.02-62.32-42.96-102.85-8.25C90.37,170.47,110.12,212.65,134.46,237.74z"/>
	</g>
</g>
<g id="Shadow">
	<ellipse class="st3" cx="250" cy="416.24" rx="193.89" ry="11.32"/>
</g>
<g id="Character_2">
	<g>
		<path class="st8" d="M349.25,163.43l-9.92-4.02c0,0-13.09,23.87-16.84,25.08c-5.1,1.64-15.65,6.2-21.92,7.05
			c-0.85,0.99-2.24,4.1-2.11,5.24c8.41,2.8,26.89-0.92,30.85-3.86C338.32,186.22,349.25,163.43,349.25,163.43z"/>
		<g>
			<path class="st9" d="M352.3,158.02c1.85,6.84-8.17,20.58-8.17,20.58l-13.16-7.38c0,0,2.45-5.65,5.46-11.4
				C341.27,150.52,350.19,150.21,352.3,158.02z"/>
			<path class="st10" d="M352.3,158.02c1.85,6.84-8.17,20.58-8.17,20.58l-13.16-7.38c0,0,2.45-5.65,5.46-11.4
				C341.27,150.52,350.19,150.21,352.3,158.02z"/>
		</g>
		<path class="st11" d="M336.21,174.15l5.17,2.9l0.9-15.87C339.28,163.49,337.16,170.45,336.21,174.15z"/>
		<g>
			<path class="st9" d="M343.66,152.86c0,0-10.22,22.74-4.26,65.08c12.13,0,34.37,0,40.27,0c0.64-6.18-1.48-36.34,6.19-65.46
				c0,0-6.82-1.39-13.38-1.7c-5.13-0.25-12.57-0.41-17.12,0C349.37,151.32,343.66,152.86,343.66,152.86z"/>
			<path class="st10" d="M343.66,152.86c0,0-10.22,22.74-4.26,65.08c12.13,0,34.37,0,40.27,0c0.64-6.18-1.48-36.34,6.19-65.46
				c0,0-6.82-1.39-13.38-1.7c-5.13-0.25-12.57-0.41-17.12,0C349.37,151.32,343.66,152.86,343.66,152.86z"/>
		</g>
		<path class="st12" d="M334.32,417.14c-0.06,1.07,15.21,1.94,34.1,1.94s34.27-0.87,34.33-1.94c0.06-1.07-15.2-1.94-34.1-1.94
			C349.76,415.2,334.39,416.07,334.32,417.14z"/>
		
			<rect x="357.82" y="390.96" transform="matrix(0.9331 -0.3595 0.3595 0.9331 -119.4566 156.7512)" class="st8" width="7.68" height="17.09"/>
		<polygon class="st8" points="393.05,409.45 385.52,409.45 382.76,392.02 390.29,392.02 		"/>
		<path class="st13" d="M385.04,408.58l8.46,0c0.31,0,0.56,0.21,0.61,0.51l1.09,6.69c0.11,0.69-0.47,1.35-1.18,1.34
			c-2.95-0.05-4.37-0.22-8.09-0.22c-2.29,0-7.02,0.24-10.18,0.24c-3.09,0-3.39-3.12-2.08-3.41c5.88-1.27,8.16-3.02,10.12-4.69
			C384.14,408.74,384.59,408.58,385.04,408.58z"/>
		<path class="st13" d="M359.97,405.95l8.02-2.33c0.3-0.09,0.61,0.04,0.74,0.31l2.97,6c0.31,0.62-0.06,1.4-0.75,1.59
			c-2.9,0.79-4.86,1.29-8.5,2.35c-2.51,0.73-5.07,1.92-7.55,2.71c-1.72,0.55-5.76,0.57-7.85,0.57c-3.09,0-3.78-3.26-2.46-3.41
			c3.35-0.38,3.8-0.2,5.65-1.13c3.06-1.54,5.43-2.81,8.08-5.58C358.8,406.54,359.34,406.13,359.97,405.95z"/>
		<path class="st8" d="M301.83,191.47l-8.28-3.49l-3.41,9.18c0,0,4.78,0.87,10.24,0L301.83,191.47z"/>
		<polygon class="st8" points="287.39,187.76 287.17,193.86 290.14,197.16 293.55,187.98 		"/>
		<g>
			
				<rect x="356.33" y="391.24" transform="matrix(0.9329 -0.3601 0.3601 0.9329 -118.3055 156.2321)" class="st14" width="7.68" height="8.81"/>
			<polygon class="st14" points="390.29,392.02 382.76,392.02 384.19,401.01 391.72,401.01 			"/>
		</g>
		<path class="st11" d="M338.12,206.49c0.14,1.81,0.32,3.66,0.53,5.56l29.94-9.72c4.68-1.4,8.74-4.34,11.52-8.35
			c0.11-2.67,0.27-5.48,0.49-8.41c0.1-1.43,0.23-2.89,0.36-4.37c0.14-1.54,0.31-3.11,0.49-4.7L338.12,206.49z"/>
		<path class="st5" d="M347.9,173.69l-1.02-0.12c0.59-4.99,4.32-8.93,8.25-8.84l-0.03,1.03
			C351.71,165.66,348.43,169.21,347.9,173.69z"/>
		<path class="st5" d="M353.23,182.92c-0.06,0-0.11,0-0.17,0l0.03-1.03c3.44,0.13,6.67-3.46,7.2-7.93l1.02,0.12
			C360.73,179,357.12,182.92,353.23,182.92z"/>
		<path class="st8" d="M371.92,131.5c-1.4,5.51-3.07,15.6,0.57,19.28c0,0-2.54,5.59-12.78,5.59c-9.35,0-4.34-5.59-4.34-5.59
			c6.23-1.47,6.34-6.02,5.52-10.3L371.92,131.5z"/>
		<path class="st14" d="M367.42,135.16l-6.53,5.31c0.2,1.01,0.34,2.04,0.35,3.04c1.91,1.9,5.74-2.91,6.13-5.37
			C367.57,136.91,367.59,135.73,367.42,135.16z"/>
		<path class="st14" d="M349.66,131.43c0.96,1.71,2.65,2.78,4.24,3.14c2.4,0.53,3.61-1.67,2.95-3.9c-0.6-2-2.56-4.69-4.98-4.23
			C349.5,126.89,348.57,129.47,349.66,131.43z"/>
		<path class="st13" d="M353.63,113.8c-3.74,1.71-5.06,16.57-0.36,18.77C357.97,134.76,360.71,110.55,353.63,113.8z"/>
		<path class="st8" d="M373.06,123.21c-0.9,7.46-1.04,11.85-5.03,15.67c-6,5.76-15.01,2.34-16.35-5.1
			c-1.21-6.7,0.46-17.77,7.93-20.74C366.97,110.12,373.95,115.75,373.06,123.21z"/>
		<path class="st13" d="M360.77,117.66c5.53-1.42,9.6-2.38,8.15,2.24c-1.94,6.15-4.26,12.11-1.14,12.39c1.89,0.17,10.3-3.4,9.23-7
			c-0.93-3.14,2.98-3.99,3.7-5.59c2.59-5.77-4.82-5.02-3.5-8.51c1.28-3.4-5.97-9.14-9.99-6.33c-6.51,4.54-17.68,4.48-11.81-2.97
			c4.21-5.33-3.3-4.24-3.3-4.24s4.54,2.69-3.1,6.85C340.92,108.92,348.33,120.85,360.77,117.66z"/>
		<path class="st8" d="M375.95,131.43c-1.16,1.71-2.97,2.78-4.61,3.14c-2.46,0.53-3.41-1.67-2.49-3.9c0.83-2,3.11-4.69,5.47-4.23
			C376.64,126.89,377.27,129.47,375.95,131.43z"/>
		<path class="st15" d="M339.4,217.94c0,0-6.76,60.5-7.29,83.46c-0.55,23.88,22.91,98.39,22.91,98.39l12.01-5.04
			c0,0-13.98-68.07-12.04-91.53c2.12-25.57,10.88-85.28,10.88-85.28H339.4z"/>
		<path class="st11" d="M356.2,234.55c-5.38,11.18-1.76,33.28,1.16,46.39c1.11-9.25,2.43-19.29,3.68-28.58
			C360.92,238.08,359.81,227.05,356.2,234.55z"/>
		<path class="st9" d="M366.49,390.83c0.06-0.02,1.42,3.83,1.42,3.83l-13.84,5.81l-2.18-4.06L366.49,390.83z"/>
		<path class="st15" d="M353.69,217.94c0,0,5.17,57.54,8.6,79.09c3.75,23.61,18.5,102.24,18.5,102.24h13.79
			c0,0-8.26-76.72-9.82-100.1c-1.69-25.37-5.07-81.23-5.07-81.23H353.69z"/>
		<path class="st9" d="M394.78,395.68c0.06,0,0.46,3.85,0.46,3.85h-15.16l-1.08-4.42L394.78,395.68z"/>
		<path class="st11" d="M389.5,391.12c-0.07,0-0.12-0.05-0.13-0.11c-0.08-0.7-7.53-69.97-8.93-90.96
			c-1.52-22.79-4.58-73.31-4.61-73.82c0-0.07,0.05-0.13,0.12-0.14c0,0,0.01,0,0.01,0c0.07,0,0.12,0.05,0.13,0.12
			c0.03,0.51,3.09,51.03,4.61,73.82c1.4,20.99,8.85,90.26,8.93,90.95c0.01,0.07-0.04,0.13-0.11,0.14
			C389.51,391.12,389.5,391.12,389.5,391.12z"/>
		<path class="st13" d="M361.62,125.29c-0.04,0.61-0.39,1.1-0.78,1.1c-0.4,0-0.69-0.49-0.65-1.1c0.04-0.61,0.39-1.1,0.78-1.1
			C361.37,124.19,361.66,124.69,361.62,125.29z"/>
		<path class="st13" d="M354.76,125.29c-0.04,0.61-0.39,1.1-0.78,1.1s-0.69-0.49-0.65-1.1c0.04-0.61,0.39-1.1,0.78-1.1
			C354.5,124.19,354.8,124.69,354.76,125.29z"/>
		<path class="st16" d="M356.92,125.6c0,0-1.59,3.5-3.21,5.19c1.02,1,2.87,0.54,2.87,0.54L356.92,125.6z"/>
		<path class="st13" d="M357.1,133.88c-0.1,0-0.17-0.08-0.17-0.18c0.01-0.1,0.09-0.18,0.19-0.18c2.67,0,4.02-1.86,4.03-1.88
			c0.06-0.08,0.17-0.11,0.25-0.05c0.08,0.05,0.1,0.16,0.04,0.25C361.38,131.92,359.96,133.88,357.1,133.88z"/>
		<path class="st13" d="M362.84,123.45c-0.1,0.04-0.22,0.03-0.31-0.03c-1.31-0.83-2.54-0.27-2.55-0.27
			c-0.17,0.09-0.39,0.01-0.47-0.17c-0.07-0.18,0.01-0.39,0.2-0.48c0.06-0.03,1.6-0.73,3.22,0.3c0.16,0.1,0.2,0.32,0.09,0.49
			C362.98,123.37,362.92,123.42,362.84,123.45z"/>
		<path class="st13" d="M352.11,121.45c-0.05-0.01-0.1-0.04-0.14-0.08c-0.14-0.13-0.14-0.36,0-0.5c1.4-1.47,3.01-1.25,3.08-1.24
			c0.19,0.02,0.32,0.21,0.28,0.41c-0.04,0.19-0.23,0.33-0.42,0.3l0,0c-0.05-0.01-1.32-0.17-2.43,1.01
			C352.38,121.45,352.23,121.49,352.11,121.45z"/>
		<path class="st8" d="M389.73,162.32l-10.4-2.77c0,0-10.2,25.11-13.8,26.75c-4.9,2.23-17.32,9.95-22.59,13.67
			c-0.29,1.24-0.06,4.56,0.6,5.46c8.97-1.63,26.23-8.27,29.83-11.64C381.57,186.1,389.73,162.32,389.73,162.32z"/>
		<path class="st17" d="M382.47,409.9c-0.57,0-1.1-0.1-1.43-0.38c-0.26-0.23-0.36-0.54-0.31-0.94c0.04-0.3,0.2-0.44,0.33-0.5
			c0.85-0.43,3.2,1.06,3.46,1.24c0.06,0.04,0.09,0.11,0.07,0.18c-0.02,0.07-0.07,0.13-0.14,0.14
			C383.93,409.75,383.17,409.9,382.47,409.9z M381.44,408.34c-0.09,0-0.17,0.01-0.23,0.04c-0.05,0.03-0.11,0.07-0.12,0.21
			c-0.03,0.28,0.03,0.5,0.2,0.65c0.39,0.35,1.37,0.39,2.66,0.14C383.13,408.88,382.02,408.34,381.44,408.34z"/>
		<path class="st17" d="M384.41,409.63c-0.03,0-0.06-0.01-0.08-0.02c-0.75-0.42-2.16-2.07-1.96-2.91c0.04-0.15,0.16-0.42,0.6-0.47
			c0.28-0.03,0.53,0.04,0.75,0.23c0.83,0.71,0.89,2.89,0.89,2.98c0,0.07-0.03,0.13-0.09,0.16
			C384.48,409.62,384.45,409.63,384.41,409.63z M383.07,406.58c-0.03,0-0.05,0-0.08,0.01c-0.23,0.03-0.26,0.14-0.27,0.18
			c-0.12,0.5,0.76,1.74,1.5,2.33c-0.05-0.64-0.22-1.9-0.75-2.36C383.35,406.63,383.22,406.58,383.07,406.58z"/>
		<path class="st17" d="M355.92,408.65c-0.74,0.18-1.44,0.23-1.89-0.01c-0.29-0.15-0.45-0.41-0.49-0.76
			c-0.02-0.21,0.05-0.39,0.2-0.53c0.81-0.72,4.07,0.05,4.44,0.14c0.07,0.02,0.12,0.08,0.13,0.16c0,0.08-0.04,0.15-0.11,0.18
			C357.59,408.1,356.73,408.45,355.92,408.65z M354.29,407.46c-0.14,0.03-0.24,0.08-0.32,0.14c-0.06,0.06-0.09,0.12-0.08,0.21
			c0.03,0.24,0.13,0.4,0.32,0.51c0.53,0.29,1.76,0.06,3.35-0.6C356.45,407.49,354.99,407.29,354.29,407.46z"/>
		<path class="st17" d="M358.17,407.84c-0.02,0.01-0.05,0.01-0.07,0c-0.97-0.18-3.04-1.33-3.06-2.19c0-0.2,0.09-0.48,0.56-0.64
			c0.34-0.13,0.7-0.1,1.03,0.06c1.09,0.54,1.65,2.46,1.68,2.54c0.02,0.06,0,0.13-0.04,0.17
			C358.24,407.81,358.2,407.83,358.17,407.84z M355.8,405.31c-0.03,0.01-0.07,0.02-0.1,0.03c-0.31,0.11-0.31,0.24-0.31,0.28
			c0.01,0.52,1.45,1.47,2.46,1.79c-0.2-0.55-0.69-1.67-1.4-2.02C356.24,405.28,356.02,405.26,355.8,405.31z"/>
		<path class="st8" d="M343.78,199.37l-10.43,4.8l-1.21,2.94l3.85,2.59c0,0,7.19-0.78,9.24-5.4L343.78,199.37z"/>
		<path class="st13" d="M344.22,205.6c-0.65-3.87-1.93-5.64-1.94-5.66l1.64-1.23c0.06,0.08,1.58,2.13,2.32,6.55L344.22,205.6z"/>
		<path class="st13" d="M346,200.79c0.34,0.84-0.21,1.85-1.21,2.25c-1.01,0.41-2.1,0.06-2.44-0.78c-0.34-0.84,0.21-1.85,1.21-2.25
			C344.57,199.61,345.66,199.95,346,200.79z"/>
		<polygon class="st8" points="326.3,208.05 327.69,209.45 337.05,205.45 333.35,204.17 		"/>
		<path class="st15" d="M366.49,390.83c0.06-0.02,1.42,3.83,1.42,3.83l-13.84,5.81l-2.18-4.06L366.49,390.83z"/>
		<path class="st15" d="M394.78,395.68c0.06,0,0.46,3.85,0.46,3.85h-15.16l-1.08-4.42L394.78,395.68z"/>
		<g>
			<path class="st9" d="M392.44,159.44c2.75,8.87-7.96,20.98-7.96,20.98l-14.85-6.06c0,0,2.09-6.44,6.07-15.07
				C380.23,149.48,389.66,150.49,392.44,159.44z"/>
			<path class="st10" d="M392.44,159.44c2.75,8.87-7.96,20.98-7.96,20.98l-14.85-6.06c0,0,2.09-6.44,6.07-15.07
				C380.23,149.48,389.66,150.49,392.44,159.44z"/>
		</g>
	</g>
</g>
<g id="Screen">
	<rect x="238.49" y="70.57" class="st10" width="6.39" height="1.03"/>
	
		<rect x="319.14" y="119.42" transform="matrix(0.045 -0.999 0.999 0.045 193.165 441.9351)" class="st10" width="17.18" height="1.03"/>
	<polygon class="st18" points="325.61,75.19 207.61,75.19 196.63,320.91 314.63,320.91 	"/>
	<polygon class="st19" points="322.09,78.57 204.09,78.57 193.11,324.28 311.11,324.28 	"/>
	<polygon class="st10" points="318.57,81.94 200.57,81.94 189.58,327.66 307.58,327.66 	"/>
	<polygon class="st5" points="305.14,189.11 204.42,189.11 203.58,207.91 304.3,207.91 	"/>
	<polygon class="st17" points="259.81,175.39 205.03,175.39 204.66,183.8 259.44,183.8 	"/>
	<polygon class="st5" points="302.87,239.85 202.15,239.85 201.31,258.66 302.03,258.66 	"/>
	<polygon class="st20" points="284.4,284.04 216.67,284.04 215.66,306.57 283.39,306.57 	"/>
	<path class="st5" d="M279.87,310.07h-67.73c-0.03,0-0.06-0.01-0.09-0.04c-0.02-0.02-0.03-0.06-0.03-0.09l1.01-22.54
		c0-0.06,0.06-0.11,0.12-0.11h67.73c0.03,0,0.06,0.01,0.09,0.04c0.02,0.02,0.03,0.06,0.03,0.09l-1.01,22.54
		C279.98,310.02,279.93,310.07,279.87,310.07z M212.26,309.83h67.49l1-22.3h-67.49L212.26,309.83z"/>
	<polygon class="st17" points="247.98,226.13 202.76,226.13 202.39,234.55 247.6,234.55 	"/>
	<path class="st5" d="M283.11,128.38c-0.25,5.63-2.29,10.83-5.56,15.05c-4.94,6.4-12.68,10.56-21.2,10.56
		c-8.52,0-15.88-4.16-20.24-10.56c-2.89-4.22-4.47-9.42-4.22-15.05c0.63-14.15,12.61-25.62,26.75-25.62
		C272.78,102.76,283.74,114.23,283.11,128.38z"/>
	<path class="st21" d="M285.52,108.12c-0.07,1.5-0.61,2.88-1.48,4c-1.31,1.7-3.37,2.81-5.63,2.81s-4.22-1.11-5.38-2.81
		c-0.77-1.12-1.19-2.5-1.12-4c0.17-3.76,3.35-6.81,7.11-6.81C282.77,101.32,285.68,104.36,285.52,108.12z"/>
	<path class="st13" d="M215.27,198.51c-0.07,1.66-1.48,3.01-3.15,3.01c-1.66,0-2.95-1.35-2.88-3.01c0.07-1.66,1.48-3.01,3.15-3.01
		C214.05,195.5,215.34,196.84,215.27,198.51z"/>
	<path class="st13" d="M228.75,198.51c-0.07,1.66-1.48,3.01-3.15,3.01c-1.66,0-2.95-1.35-2.88-3.01c0.07-1.66,1.48-3.01,3.15-3.01
		S228.83,196.84,228.75,198.51z"/>
	<path class="st13" d="M242.24,198.51c-0.07,1.66-1.48,3.01-3.15,3.01c-1.66,0-2.95-1.35-2.88-3.01c0.07-1.66,1.48-3.01,3.15-3.01
		C241.03,195.5,242.31,196.84,242.24,198.51z"/>
	<path class="st13" d="M213,249.25c-0.07,1.66-1.48,3.01-3.15,3.01c-1.66,0-2.95-1.35-2.88-3.01c0.07-1.66,1.48-3.01,3.15-3.01
		C211.78,246.24,213.07,247.59,213,249.25z"/>
	<path class="st13" d="M226.48,249.25c-0.07,1.66-1.48,3.01-3.15,3.01c-1.66,0-2.95-1.35-2.88-3.01c0.07-1.66,1.48-3.01,3.15-3.01
		C225.27,246.24,226.56,247.59,226.48,249.25z"/>
	<path class="st13" d="M239.97,249.25c-0.07,1.66-1.48,3.01-3.15,3.01c-1.66,0-2.95-1.35-2.88-3.01c0.07-1.66,1.48-3.01,3.15-3.01
		S240.05,247.59,239.97,249.25z"/>
	<path class="st13" d="M253.46,249.25c-0.07,1.66-1.48,3.01-3.15,3.01c-1.66,0-2.95-1.35-2.88-3.01c0.07-1.66,1.48-3.01,3.15-3.01
		C252.24,246.24,253.53,247.59,253.46,249.25z"/>
	<path class="st13" d="M266.95,249.25c-0.07,1.66-1.48,3.01-3.15,3.01c-1.66,0-2.95-1.35-2.88-3.01c0.07-1.66,1.48-3.01,3.15-3.01
		C265.73,246.24,267.02,247.59,266.95,249.25z"/>
	<g>
		<ellipse transform="matrix(0.715 -0.6991 0.6991 0.715 -10.2747 214.4266)" cx="257.87" cy="119.82" rx="10.6" ry="10.13"/>
		<path d="M277.54,143.43c-4.94,6.4-12.68,10.56-21.2,10.56c-8.52,0-15.88-4.16-20.24-10.56c4.86-4.84,12.55-7.98,21.07-7.98
			C265.7,135.45,273.11,138.59,277.54,143.43z"/>
		
			<ellipse transform="matrix(0.715 -0.6991 0.6991 0.715 -10.2747 214.4266)" class="st22" cx="257.87" cy="119.82" rx="10.6" ry="10.13"/>
		<path class="st22" d="M277.54,143.43c-4.94,6.4-12.68,10.56-21.2,10.56c-8.52,0-15.88-4.16-20.24-10.56
			c4.86-4.84,12.55-7.98,21.07-7.98C265.7,135.45,273.11,138.59,277.54,143.43z"/>
	</g>
</g>
<g id="Character_1">
	<g>
		<g>
			<path class="st8" d="M130.41,212.44c-0.95,2.08-1.94,4.36-2.82,6.59c-0.88,2.25-1.76,4.5-2.53,6.79
				c-1.49,4.57-2.89,9.18-3.57,13.8l-0.23,1.47c-0.02,0.18,0,0.43,0.07,0.75c0.15,0.64,0.54,1.49,1.1,2.32
				c1.13,1.69,2.72,3.4,4.44,4.98c1.72,1.61,3.58,3.15,5.52,4.62c1.92,1.48,3.94,2.92,5.92,4.27l-1.86,3.51
				c-4.76-2.08-9.19-4.57-13.48-7.69c-2.11-1.61-4.19-3.34-6.04-5.68c-0.91-1.18-1.8-2.51-2.39-4.27c-0.28-0.88-0.48-1.87-0.48-2.94
				c0.01-0.25,0.02-0.59,0.04-0.76l0.05-0.5l0.1-0.99c0.54-5.3,1.72-10.4,3.27-15.34c0.78-2.47,1.61-4.91,2.56-7.31
				c0.97-2.41,1.93-4.73,3.14-7.16L130.41,212.44z"/>
			<path class="st8" d="M136.91,257.43l7.07-3.58l-1.83,7.77c0,0-4.85,1.36-7.11-1L136.91,257.43z"/>
			<polygon class="st8" points="150.45,255.12 148.57,261.54 142.15,261.61 143.98,253.85 			"/>
			<path class="st16" d="M160.43,175c0,0,0.61,2.25,1.58,3.95c-0.84,0.78-1.58,0.51-1.58,0.51V175z"/>
			<ellipse class="st13" cx="160.22" cy="173.91" rx="0.75" ry="1.15"/>
			<path class="st13" d="M160.04,172.8l1.52-0.44C161.56,172.37,160.78,173.55,160.04,172.8z"/>
			<path class="st8" d="M140.9,182.34c0.91,4.66,1.82,13.19-1.43,16.29c0,0,1.27,4.72,9.92,4.72c9.51,0,4.55-4.72,4.55-4.72
				c-5.19-1.24-5.06-5.09-4.15-8.71L140.9,182.34z"/>
			<path class="st8" d="M138.37,171.74c0.48,7.77,0.51,11.07,4.44,15.06c5.9,6,15.35,3.71,17.2-4.04c1.67-6.98,0.61-18.52-7-21.61
				C145.52,158.1,137.9,163.97,138.37,171.74z"/>
			<path class="st13" d="M139.14,162.95c-3.9,1.42-9.1,0.36-7.06,12.39c2.16,12.74-1.16,16.93-1.16,16.93s14.79,3.15,29.89-0.19
				c0,0-4.61-8.06-3.32-13.94c1.65-7.5,0.34-10.28,0.34-10.28S144.62,160.95,139.14,162.95z"/>
			<path class="st8" d="M155.64,175.79c-0.02,1.54,0.52,3.09,1.22,4.17c1.05,1.62,2.3,0.96,2.62-0.72c0.28-1.51,0.07-4.18-1.28-5.22
				C156.88,173,155.66,174.03,155.64,175.79z"/>
			<path class="st13" d="M135.75,164.31c-1.13-3.14,4.22-7.98,15.52-5.97c11.3,2.01,11.79,11.41,11.79,11.41l-2.29-2.71l0.1,2.86
				l-11.61,2.23L135.75,164.31z"/>
			<g>
				<path class="st9" d="M136.71,199.16L136.71,199.16c-0.16-0.96,0.49-1.87,1.45-2.02c3.52-0.58,11.51-1.76,15.54-1.2
					c2.99,0.41,3.78,2.16,3.91,3.59c0.09,1.06-0.78,1.95-1.84,1.9l-17.39-0.79C137.54,200.6,136.85,199.98,136.71,199.16z"/>
				<path class="st23" d="M136.71,199.16L136.71,199.16c-0.16-0.96,0.49-1.87,1.45-2.02c3.52-0.58,11.51-1.76,15.54-1.2
					c2.99,0.41,3.78,2.16,3.91,3.59c0.09,1.06-0.78,1.95-1.84,1.9l-17.39-0.79C137.54,200.6,136.85,199.98,136.71,199.16z"/>
			</g>
			<polygon class="st8" points="146.76,373.86 153.21,378.34 164,363.71 157.55,359.24 			"/>
			<polygon class="st8" points="131.72,373.57 138.53,377.45 148.08,361.98 141.27,358.1 			"/>
			<g>
				<polygon class="st14" points="163.99,363.71 158.43,371.25 151.98,366.78 157.55,359.24 				"/>
				<polygon class="st14" points="141.26,358.1 148.08,361.99 143.16,369.96 136.34,366.07 				"/>
			</g>
			<g>
				<path class="st9" d="M152.2,247.99c0,0,25.18,31.74,20.46,62.08c-3.82,24.51-25.91,57.7-25.91,57.7l-10.39-5.16
					c0,0,11.29-22.06,18.7-45.44c3.11-9.81,1.78-20.61-4.03-29.1c-12.76-18.63-33.19-7.55-19.44-40.08H152.2z"/>
				<path class="st15" d="M152.2,247.99c0,0,25.18,31.74,20.46,62.08c-3.82,24.51-25.91,57.7-25.91,57.7l-10.39-5.16
					c0,0,11.29-22.06,18.7-45.44c3.11-9.81,1.78-20.61-4.03-29.1c-12.76-18.63-33.19-7.55-19.44-40.08H152.2z"/>
			</g>
			<path class="st24" d="M164.55,268.38l-3.66-3.64c0,0.29,7.09,44.05,9.08,56.35c1.2-3.77,2.13-7.49,2.68-11.03
				C174.97,295.21,170.11,280.01,164.55,268.38z"/>
			<g>
				<path class="st9" d="M163.44,247.99c0,0,30.32,39.88,31.17,63.79c0.71,20.04-33.03,58.75-33.03,58.75l-9.8-6.34
					c0,0,19.73-27.52,24.7-50.01c-1.89-22.27-42.54-66.19-42.54-66.19H163.44z"/>
				<path class="st15" d="M163.44,247.99c0,0,30.32,39.88,31.17,63.79c0.71,20.04-33.03,58.75-33.03,58.75l-9.8-6.34
					c0,0,19.73-27.52,24.7-50.01c-1.89-22.27-42.54-66.19-42.54-66.19H163.44z"/>
			</g>
			<path class="st10" d="M125.93,200.41c-3.25,0.77-6.35,12.55-6.35,12.55l12.66,8.45c0,0,4.22-9.32,2.75-13.4
				C133.46,203.77,130.03,199.44,125.93,200.41z"/>
			<path class="st11" d="M128.41,207.99l-0.88,10.27l4.71,3.16c0,0,2.21-4.88,2.87-9.14L128.41,207.99z"/>
			<path class="st10" d="M167.19,200.64c0,0,3.74,1.32-3.75,47.35c-12.64,0-25.71,0-31.86,0c0.53-12.97,0.55-20.96-5.65-47.58
				c0,0,6.68-1.45,13.53-1.78c5.36-0.26,9.75-0.43,14.47,0C160.15,199.2,167.19,200.64,167.19,200.64z"/>
			<path class="st8" d="M170.43,207.95c0.72,2,1.49,4.15,2.28,6.23c0.76,2.1,1.56,4.2,2.37,6.29l2.45,6.28l0.62,1.57l0.31,0.78
				l0.16,0.39c0.03,0.07,0.02,0.06,0.01,0.06c-0.04-0.02-0.08-0.22-0.7-0.62c-0.3-0.19-0.81-0.37-1.31-0.38
				c-0.49-0.02-0.89,0.1-1.11,0.2c-0.45,0.22-0.46,0.31-0.45,0.29c0.03-0.01,0.12-0.1,0.22-0.23c0.44-0.52,0.96-1.43,1.43-2.33
				c0.47-0.92,0.92-1.9,1.37-2.89c0.88-1.99,1.69-4.07,2.51-6.16c0.81-2.09,1.57-4.21,2.33-6.34l2.28-6.38l3.85,0.97
				c-0.76,4.57-1.75,9.04-2.92,13.52c-0.57,2.25-1.24,4.48-2,6.73c-0.38,1.13-0.8,2.25-1.29,3.4c-0.51,1.16-1.01,2.29-1.9,3.62
				c-0.23,0.34-0.5,0.69-0.87,1.08c-0.39,0.38-0.85,0.85-1.82,1.29c-0.49,0.21-1.16,0.39-1.94,0.36c-0.78-0.02-1.56-0.3-2.11-0.64
				c-1.11-0.71-1.49-1.38-1.82-1.89c-0.15-0.25-0.28-0.52-0.37-0.7l-0.19-0.39l-0.38-0.78l-0.76-1.55
				c-0.99-2.08-1.96-4.17-2.87-6.29c-0.91-2.12-1.79-4.25-2.65-6.4c-0.82-2.18-1.63-4.29-2.36-6.61L170.43,207.95z"/>
			<path class="st10" d="M167.19,200.64c3.83,0.91,8.13,12.23,8.13,12.23l-11.38,9.7c0,0-7.38-12.34-5.88-16.41
				C159.61,201.91,162.19,199.45,167.19,200.64z"/>
			<path class="st8" d="M186.98,201.19l3.99-3.34l2.78,4.33l-2.05,3.62c0,0-3.26,2.98-6.15,1.47l0,0
				C184.63,205.14,185.2,202.67,186.98,201.19z"/>
			<polygon class="st8" points="198.22,197.86 197.92,198.95 191.59,200.01 190.97,197.85 			"/>
			<polygon class="st15" points="162.4,371.05 150.98,363.67 153.03,360.11 165.86,368 			"/>
			<path class="st13" d="M142.98,376.93c-0.91,0-2.1-0.58-2.83-0.98c-0.07-0.04-0.1-0.11-0.09-0.18c0.01-0.07,0.06-0.14,0.13-0.16
				c0.31-0.1,3.02-0.93,3.78-0.28c0.12,0.1,0.26,0.29,0.21,0.6c-0.06,0.42-0.25,0.71-0.56,0.87
				C143.44,376.89,143.22,376.93,142.98,376.93z M140.73,375.83c1.24,0.63,2.24,0.87,2.72,0.63c0.2-0.1,0.32-0.29,0.36-0.58
				c0.02-0.16-0.03-0.23-0.09-0.27C143.33,375.27,141.83,375.53,140.73,375.83z"/>
			<path class="st13" d="M140.25,375.97c-0.05,0-0.1-0.02-0.13-0.06c-0.05-0.05-0.06-0.12-0.05-0.18c0.03-0.09,0.65-2.26,1.68-2.76
				c0.27-0.13,0.55-0.14,0.82-0.03c0.43,0.18,0.47,0.5,0.46,0.67c-0.07,0.9-1.9,2.14-2.74,2.35
				C140.28,375.97,140.26,375.97,140.25,375.97z M142.19,373.24c-0.09,0-0.18,0.02-0.28,0.07c-0.61,0.29-1.13,1.47-1.37,2.18
				c0.88-0.37,2.08-1.35,2.12-1.9c0.01-0.09-0.01-0.2-0.23-0.3C142.35,373.26,142.26,373.24,142.19,373.24z"/>
			<path class="st13" d="M157.27,381.25c-1.13,0-2.7-1.45-3.56-2.34c-0.06-0.06-0.07-0.14-0.03-0.21c0.04-0.07,0.13-0.11,0.19-0.1
				c0.4,0.05,3.87,0.52,4.37,1.5c0.09,0.19,0.09,0.39-0.02,0.59c-0.18,0.32-0.45,0.51-0.79,0.55
				C157.37,381.24,157.32,381.25,157.27,381.25z M154.37,379.05c1.26,1.23,2.37,1.91,3,1.82c0.22-0.03,0.39-0.15,0.51-0.37
				c0.05-0.08,0.05-0.16,0.01-0.23C157.63,379.73,155.78,379.27,154.37,379.05z"/>
			<path class="st13" d="M154.48,379.01c-0.26,0-0.49-0.02-0.67-0.05c-0.06-0.01-0.12-0.06-0.14-0.12
				c-0.02-0.06-0.01-0.13,0.03-0.18c0.06-0.07,1.41-1.7,2.69-1.81c0.4-0.03,0.74,0.08,1.03,0.32c0.39,0.34,0.37,0.64,0.27,0.83
				C157.38,378.67,155.65,379.01,154.48,379.01z M154.22,378.64c1.12,0.06,2.9-0.31,3.14-0.8c0.02-0.04,0.08-0.16-0.18-0.39
				c-0.22-0.18-0.47-0.26-0.75-0.24C155.58,377.3,154.65,378.19,154.22,378.64z"/>
			<path class="st13" d="M140.52,374.92l-8.48-2.4c-0.31-0.09-0.62,0.06-0.75,0.35l-2.86,6.44c-0.3,0.67,0.12,1.5,0.83,1.68
				c2.97,0.79,4.45,1.01,8.18,2.07c2.29,0.65,5.58,1.83,8.75,2.73c3.1,0.88,4.22-2.19,2.98-2.85c-5.56-2.94-6-4.96-7.52-7.2
				C141.38,375.34,140.97,375.05,140.52,374.92z"/>
			<path class="st13" d="M153.94,377.74l-7.24-5.03c-0.26-0.18-0.6-0.15-0.82,0.08l-4.8,5.16c-0.5,0.53-0.38,1.45,0.24,1.86
				c2.55,1.71,3.87,2.41,7.06,4.62c1.96,1.36,5.87,4.38,8.57,6.25c2.65,1.84,4.71-0.7,3.75-1.72c-4.3-4.59-5.24-7.47-5.95-10.08
				C154.62,378.42,154.33,378.01,153.94,377.74z"/>
			<polygon class="st15" points="148.07,368.44 135.02,361.95 136.37,358.41 150.31,365.25 			"/>
			<g>
				<path class="st9" d="M131.1,246.12l-1.1,2.85c-0.11,0.22,0.15,0.45,0.52,0.45h33.08c0.29,0,0.53-0.14,0.54-0.32l0.29-2.85
					c0.02-0.2-0.23-0.36-0.54-0.36h-32.27C131.39,245.88,131.18,245.98,131.1,246.12z"/>
				<path class="st25" d="M131.1,246.12l-1.1,2.85c-0.11,0.22,0.15,0.45,0.52,0.45h33.08c0.29,0,0.53-0.14,0.54-0.32l0.29-2.85
					c0.02-0.2-0.23-0.36-0.54-0.36h-32.27C131.39,245.88,131.18,245.98,131.1,246.12z"/>
			</g>
			<g>
				<path class="st17" d="M136.31,249.73h-0.86c-0.17,0-0.3-0.09-0.29-0.2l0.41-3.71c0.01-0.11,0.16-0.2,0.33-0.2h0.86
					c0.17,0,0.3,0.09,0.29,0.2l-0.41,3.71C136.63,249.64,136.48,249.73,136.31,249.73z"/>
				<path class="st17" d="M156.71,249.73h-0.86c-0.17,0-0.3-0.09-0.29-0.2l0.41-3.71c0.01-0.11,0.16-0.2,0.33-0.2h0.86
					c0.17,0,0.3,0.09,0.29,0.2l-0.41,3.71C157.04,249.64,156.89,249.73,156.71,249.73z"/>
			</g>
		</g>
		<g>
			<g>
				<ellipse class="st3" cx="135.55" cy="417.14" rx="26.79" ry="1.94"/>
				<path class="st1" d="M151.87,414.4c-4.74-1.38-9.96-3.15-13.18-5.03c-0.09-0.05-0.18-0.09-0.28-0.14V387.8h9.53
					c1.58,0,2.85-1.28,2.85-2.85c0-1.58-1.28-2.85-2.85-2.85h-9.53v-97.82h-5.71v97.82h-9.53c-1.58,0-2.85,1.28-2.85,2.85
					c0,1.58,1.28,2.85,2.85,2.85h9.53v21.43c-0.09,0.05-0.19,0.09-0.28,0.14c-3.23,1.89-8.44,3.66-13.18,5.03
					c-1.56,0.45-1.23,2.74,0.39,2.74h15.92h15.92C153.1,417.14,153.43,414.85,151.87,414.4z"/>
			</g>
			<g>
				<path class="st10" d="M153.34,295.25h-35.56c-2.85,0-5.18-2.33-5.18-5.18v-10.57c0-2.85,2.33-5.18,5.18-5.18h35.56
					c2.85,0,5.18,2.33,5.18,5.18v10.57C158.52,292.92,156.19,295.25,153.34,295.25z"/>
				<g>
					<path class="st9" d="M117.45,295.25v1.82c0,1.5,1.63,2.73,3.63,2.73h28.96c2,0,3.63-1.23,3.63-2.73v-1.82H117.45z"/>
					<path class="st26" d="M117.45,295.25v1.82c0,1.5,1.63,2.73,3.63,2.73h28.96c2,0,3.63-1.23,3.63-2.73v-1.82H117.45z"/>
				</g>
			</g>
		</g>
	</g>
</g>
</svg>
